<svg xmlns="http://www.w3.org/2000/svg" xmlns:xlink="http://www.w3.org/1999/xlink" width="40" zoomAndPan="magnify" viewBox="0 0 30 30.000001" height="40" preserveAspectRatio="xMidYMid meet" version="1.0"><defs><clipPath id="b6edfeee9b"><path d="M 0.484375 0 L 29.515625 0 L 29.515625 29.03125 L 0.484375 29.03125 Z M 0.484375 0 " clip-rule="nonzero"/></clipPath></defs><g clip-path="url(#b6edfeee9b)"><path fill="#f03c2e" d="M 28.96875 13.222656 L 16.292969 0.546875 C 16.117188 0.371094 15.914062 0.238281 15.6875 0.144531 C 15.457031 0.046875 15.21875 0 14.972656 0 C 14.722656 0 14.484375 0.046875 14.253906 0.144531 C 14.027344 0.238281 13.824219 0.371094 13.648438 0.546875 L 11.019531 3.179688 L 14.355469 6.519531 C 15.132812 6.246094 16.023438 6.429688 16.640625 7.050781 C 16.941406 7.351562 17.140625 7.710938 17.234375 8.125 C 17.328125 8.539062 17.308594 8.945312 17.167969 9.347656 L 20.386719 12.566406 C 21.164062 12.296875 22.0625 12.472656 22.683594 13.09375 C 22.894531 13.304688 23.054688 13.542969 23.167969 13.816406 C 23.28125 14.089844 23.335938 14.371094 23.335938 14.667969 C 23.335938 14.964844 23.28125 15.246094 23.167969 15.519531 C 23.054688 15.792969 22.894531 16.035156 22.683594 16.242188 C 22.476562 16.449219 22.234375 16.613281 21.960938 16.722656 C 21.691406 16.835938 21.40625 16.894531 21.109375 16.894531 C 20.816406 16.894531 20.53125 16.835938 20.257812 16.722656 C 19.988281 16.609375 19.746094 16.449219 19.539062 16.242188 C 18.882812 15.585938 18.722656 14.625 19.050781 13.820312 L 16.050781 10.820312 L 16.050781 18.71875 C 16.269531 18.824219 16.46875 18.964844 16.640625 19.136719 C 16.851562 19.347656 17.011719 19.585938 17.125 19.859375 C 17.238281 20.132812 17.292969 20.417969 17.292969 20.710938 C 17.292969 21.007812 17.238281 21.289062 17.125 21.5625 C 17.011719 21.835938 16.851562 22.078125 16.640625 22.285156 C 16.433594 22.492188 16.191406 22.65625 15.917969 22.765625 C 15.648438 22.878906 15.363281 22.9375 15.066406 22.9375 C 14.773438 22.9375 14.488281 22.878906 14.214844 22.765625 C 13.945312 22.65625 13.703125 22.492188 13.496094 22.285156 C 13.285156 22.078125 13.125 21.835938 13.011719 21.5625 C 12.898438 21.289062 12.84375 21.007812 12.84375 20.710938 C 12.84375 20.417969 12.898438 20.132812 13.011719 19.859375 C 13.125 19.585938 13.285156 19.347656 13.496094 19.136719 C 13.710938 18.925781 13.949219 18.761719 14.222656 18.652344 L 14.222656 10.683594 C 13.957031 10.574219 13.710938 10.414062 13.496094 10.195312 C 13.175781 9.878906 12.972656 9.496094 12.882812 9.054688 C 12.796875 8.609375 12.839844 8.179688 13.015625 7.765625 L 9.722656 4.472656 L 1.03125 13.15625 C 0.855469 13.332031 0.71875 13.53125 0.625 13.761719 C 0.53125 13.992188 0.484375 14.230469 0.484375 14.476562 C 0.484375 14.726562 0.53125 14.964844 0.625 15.191406 C 0.71875 15.421875 0.855469 15.625 1.03125 15.800781 L 13.707031 28.472656 C 13.882812 28.648438 14.085938 28.785156 14.3125 28.878906 C 14.542969 28.972656 14.78125 29.023438 15.027344 29.023438 C 15.277344 29.023438 15.515625 28.972656 15.746094 28.878906 C 15.972656 28.785156 16.175781 28.648438 16.351562 28.472656 L 28.96875 15.878906 C 29.144531 15.703125 29.277344 15.5 29.375 15.269531 C 29.46875 15.042969 29.515625 14.800781 29.515625 14.554688 C 29.515625 14.308594 29.46875 14.066406 29.375 13.839844 C 29.277344 13.609375 29.144531 13.40625 28.96875 13.230469 " fill-opacity="1" fill-rule="nonzero"/></g></svg>